<svg version="1.2" xmlns="http://www.w3.org/2000/svg" viewBox="0 0 221 218" width="221" height="218">
	<title>Asset 1-svg</title>
	<defs>
		<linearGradient id="g1" x2="1" gradientUnits="userSpaceOnUse" gradientTransform="matrix(166.32,139.57,-139.548,166.294,25.43,38.83)">
			<stop offset="0" stop-color="#40c5f1"/>
			<stop offset="1" stop-color="#2889c9"/>
		</linearGradient>
	</defs>
	<style>
		.s0 { fill: url(#g1) } 
		.s1 { fill: #f7f8f9 } 
	</style>
	<g id="Layer_2">
		<g id="Layer_1-2">
			<path id="Layer" fill-rule="evenodd" class="s0" d="m197 45.5h-8.9c-4.7 0-10.4 1.9-13.4 4.9q-1 1-1.9 2.2-0.8 1.3-1.4 2.6-0.7 1.3-1 2.7-0.4 1.5-0.6 2.9 0 0.1 0 0.2 0 0 0 0.1 0 0.1 0 0.2 0 0 0 0.1c-2.3-2.8-5-5.3-7.9-7.4-2.9-2.2-6.1-4.1-9.4-5.6-3.3-1.5-6.8-2.6-10.4-3.3-3.5-0.8-7.2-1.1-10.8-1.1-35.9 0-60.8 25.1-60.8 61.5 0 36.1 24.9 61.3 60.8 61.3 15.8 0 29.2-6.4 38.5-17.1v48.9q-6.8 4.7-14.3 8.2-7.4 3.6-15.4 6-7.9 2.4-16.1 3.6-8.2 1.1-16.4 1c-58.5-0.6-106.5-48.1-107.6-106.5-0.3-14.6 2.4-29.2 7.8-42.8 5.5-13.5 13.6-25.9 24-36.2 10.3-10.4 22.6-18.5 36.2-24 13.5-5.5 28.1-8.2 42.7-7.9 35.5 0.6 66.9 18.5 86.3 45.5zm0 0q0 0 0 0zm0 0c12.9 18 20.4 39.9 20.4 63.5q0 8.5-1.4 16.8-1.3 8.3-3.9 16.4-2.6 8-6.4 15.6-3.8 7.5-8.7 14.4zm-27.2 59.9v0.5c-0.3 19.8-14.8 33.2-34.2 33.2h-1.4c-18.5-0.7-32.6-14.1-32.6-33.7 0-20.3 14.8-34.2 34-34.2 19.6 0 34.2 13.9 34.2 34.2z"/>
			<path id="Layer" fill-rule="evenodd" class="s1" d="m344.5 71.2v110.4h-7.1c-8.9 0-17.7-7.3-17.7-16.3-8.7 10.4-21.3 16.3-36 16.3-30.7 0-53.3-22.6-53.3-55.1 0-32.7 22.6-55.3 53.1-55.3 14.7 0 27.5 5.9 36.2 16.2v-16.2zm-23.9 55.3c0-19.3-13.8-32.4-32.5-32.4-18.2 0-32.2 13.1-32.2 32.4 0 19.1 14 32 32.2 32 18.7 0 32.5-12.9 32.5-32z"/>
			<path id="Layer" fill-rule="evenodd" class="s1" d="m723.9 71.2v110.4h-7.1c-9 0-17.7-7.3-17.7-16.3-8.8 10.4-21.3 16.3-36 16.3-30.7 0-53.4-22.6-53.4-55.1 0-32.7 22.7-55.3 53.2-55.3 14.7 0 27.4 5.9 36.2 16.2v-16.2zm-23.9 55.3c0-19.3-13.9-32.5-32.6-32.4-18.2 0-32.2 13.1-32.2 32.4 0 19.1 14 32 32.2 32 18.7 0 32.6-12.9 32.6-32z"/>
			<path id="Layer" class="s1" d="m497 71.2c-15.1 0-26.3 5.5-35.3 17.8-7.5-11.7-20.8-17.8-36.4-17.8-13.9 0-21.9 4.4-29.6 13.6v-13.6h-24.8v94.1c0 9 8.7 16.3 17.7 16.3h7.1v-57.5c0-22 8.5-29.9 24.2-29.9 3.1 0 6.1 0.7 9 1.9 2.8 1.2 5.4 2.9 7.6 5.1 2.1 2.2 3.9 4.8 5 7.7 1.2 2.8 1.8 5.9 1.8 9v47.4c0 9 8.7 16.3 17.7 16.3h7.1v-57.5c0-22 9-29.9 24.1-29.9 13.8 0 23.5 9 23.5 23.3v47.8c0 9 8.7 16.3 17.7 16.3h7.1v-68.7c0-26.3-17.4-41.7-43.5-41.7z"/>
			<path id="Layer" class="s1" d="m590 27.9v153.7h-7.1c-9 0-17.7-7.3-17.7-16.3v-137.4z"/>
			<path id="Layer" class="s1" d="m741.2 168.8q0.8-0.5 1.6-0.7 0.9-0.2 1.8-0.2 0.8 0 1.7 0.2 0.9 0.2 1.6 0.7 3.4 1.7 3.4 6 0 0.9-0.2 1.8-0.2 0.9-0.6 1.7-0.4 0.8-1.1 1.4-0.7 0.6-1.5 1.1-0.7 0.4-1.6 0.6-0.9 0.2-1.7 0.2-0.9 0-1.8-0.2-0.8-0.2-1.6-0.6-0.8-0.5-1.5-1.1-0.7-0.6-1.1-1.4-0.5-0.8-0.7-1.7-0.2-0.9-0.1-1.8-0.1-1 0.1-1.9 0.2-0.9 0.7-1.7 0.4-0.8 1.1-1.4 0.7-0.6 1.5-1z"/>
			<path id="Layer" class="s1" d="m806 173.4q-1.9 2-4.2 3.5-2.3 1.6-4.9 2.6-2.6 1.1-5.3 1.6-2.7 0.5-5.5 0.5-11.8 0-19.7-7.2-7.9-7.3-7.9-20.3 0-13.1 7.9-20.3 7.9-7.2 19.7-7.2 2.7-0.1 5.2 0.4 2.6 0.5 5.1 1.5 2.4 1 4.6 2.5 2.2 1.5 4 3.3l-7 7.4q-1.2-1.2-2.5-2.1-1.4-0.9-2.9-1.5-1.5-0.6-3.1-0.9-1.7-0.2-3.3-0.2-1.7 0-3.3 0.2-1.6 0.3-3.2 0.9-1.5 0.6-2.9 1.5-1.4 1-2.6 2.1-4.8 4.7-4.8 12.4 0 8 4.8 12.4c1.7 1.5 3.6 2.6 5.7 3.4 2.1 0.7 4.3 1.1 6.6 1.1 2.2-0.1 4.4-0.5 6.4-1.3 2.1-0.9 4-2.1 5.6-3.6z"/>
			<path id="Layer" fill-rule="evenodd" class="s1" d="m854.5 134.9q7.6 7.8 7.6 19.5 0 11.7-7.5 19.5-7.4 7.7-19.7 7.7-12.2 0-19.5-7.7-7.4-7.7-7.4-19.5 0-11.8 7.5-19.5 7.5-7.8 19.5-7.8 12 0 19.5 7.8zm-31.2 7.3q-1.1 1.2-1.9 2.7-0.9 1.4-1.4 3-0.6 1.5-0.9 3.2-0.2 1.6-0.2 3.3 0 1.7 0.2 3.3 0.3 1.6 0.8 3.2 0.6 1.5 1.4 2.9 0.9 1.5 2 2.7 4.3 4.9 11.6 4.9 1.7 0.1 3.3-0.2 1.6-0.3 3.2-1 1.5-0.6 2.8-1.5 1.4-1 2.5-2.2c1.4-1.7 2.5-3.6 3.3-5.7 0.7-2.1 1.1-4.2 1.1-6.5 0-2.2-0.4-4.3-1.2-6.4-0.8-2.1-1.9-4-3.4-5.7q-1.1-1.2-2.4-2.1-1.3-1-2.8-1.6-1.5-0.7-3.1-1-1.6-0.3-3.3-0.3-1.6 0-3.2 0.3-1.6 0.3-3.1 0.9-1.5 0.6-2.9 1.6-1.3 1-2.4 2.2z"/>
			<path id="Layer" class="s1" d="m872.6 168.8q0.8-0.5 1.7-0.7 0.8-0.2 1.7-0.2 0.9 0 1.8 0.2 0.8 0.2 1.6 0.7 3.3 1.7 3.3 6 0.1 0.9-0.1 1.8-0.2 0.9-0.6 1.7-0.5 0.8-1.1 1.4-0.7 0.6-1.5 1.1-0.8 0.4-1.6 0.6-0.9 0.2-1.8 0.2-0.9 0-1.7-0.2-0.9-0.2-1.7-0.6-0.8-0.5-1.4-1.1-0.7-0.6-1.2-1.4-0.4-0.8-0.6-1.7-0.2-0.9-0.2-1.8 0-1 0.2-1.9 0.2-0.9 0.6-1.7 0.5-0.8 1.1-1.4 0.7-0.6 1.5-1z"/>
			<path id="Layer" class="s1" d="m931.6 176.7q-0.1-0.2-0.2-0.3-0.1-0.2-0.2-0.4-0.1-0.1-0.1-0.3-0.1-0.2-0.2-0.4 0.1 0.2 0.2 0.4 0 0.2 0.1 0.3 0.1 0.2 0.2 0.4 0.1 0.1 0.2 0.3z"/>
			<path id="Layer" class="s1" d="m1000 180.8v0.8h-13.4l-21.7-23.5v-8.2l18.7-20.7h13.3v0.7l-22.6 24 25.7 26.9z"/>
			<path id="Layer" class="s1" d="m964.9 108.8v72.8h-3.4c-4.2 0-8.3-3.5-8.3-7.7v-65.1z"/>
			<path id="Layer" class="s1" d="m942.3 128.4v52.3h-3.4q-0.1 0-0.2 0-0.1 0-0.2 0 0 0-0.1 0-0.1 0-0.2 0-0.1 0-0.2 0-0.1 0-0.1 0-0.1 0-0.2-0.1-0.1 0-0.2 0-0.1 0-0.2 0-0.1 0-0.2-0.1-0.1 0-0.2 0-0.1-0.1-0.2-0.1-0.1 0-0.2 0-0.1-0.1-0.2-0.1-0.1 0-0.2-0.1-0.1 0-0.2 0 0-0.1-0.1-0.1-0.1 0-0.2-0.1-0.1 0-0.1 0-0.1-0.1-0.2-0.1h-0.1l-0.6-0.3q-0.3-0.2-0.5-0.3-0.2-0.1-0.3-0.2-0.1-0.1-0.3-0.2-0.1-0.1-0.2-0.3-0.2-0.1-0.3-0.2 0 0-0.1-0.1 0 0-0.1-0.1 0 0-0.1-0.1 0 0-0.1-0.1-0.1-0.1-0.2-0.1 0-0.1-0.1-0.2-0.1-0.1-0.2-0.2 0-0.1-0.1-0.2-0.1-0.1-0.1-0.1-0.1-0.1-0.1-0.2-0.1 0-0.1-0.1 0-0.1-0.1-0.2-0.1-0.1-0.2-0.3-0.1-0.2-0.2-0.3-0.1-0.2-0.1-0.4-0.1-0.2-0.2-0.3 0-0.1 0-0.2-0.1-0.1-0.1-0.2 0-0.1 0-0.2-0.1-0.1-0.1-0.2 0-0.1 0-0.1 0-0.1-0.1-0.2 0-0.1 0-0.2 0 0 0-0.1 0 0 0-0.1 0 0 0 0 0 0 0-0.1 0 0 0 0 0-0.1 0-0.1 0 0 0 0 0 0 0-0.1 0 0 0 0-1.6 1.9-3.6 3.4-2.1 1.5-4.3 2.5-2.3 1.1-4.8 1.6-2.4 0.5-4.9 0.5-1.6 0-3.1-0.1-1.6-0.2-3.1-0.5-1.5-0.4-3-0.9-1.4-0.6-2.8-1.3-0.7-0.4-1.3-0.8-0.7-0.5-1.3-1-0.6-0.5-1.1-1-0.6-0.5-1.1-1.1c-4.1-4.5-6.2-10.8-6.2-18.6v-28h11.7v28q0 6.8 3.8 11 3.8 4.1 10.5 4.1 1.5 0.1 2.9-0.2 1.5-0.3 2.8-0.9 1.4-0.6 2.6-1.5 1.2-0.8 2.1-1.9 1-1.1 1.7-2.3 0.8-1.2 1.3-2.5 0.5-1.4 0.8-2.7 0.3-1.4 0.3-2.9v-28.1z"/>
		</g>
	</g>
</svg>